<svg xmlns="http://www.w3.org/2000/svg" width="169.034" height="169.075" viewBox="0 0 169.034 169.075"><defs><style>.a{fill:#00b1d8;}.b{fill:#231f20;}.c{fill:none;}</style></defs><g transform="translate(0)"><path class="a" d="M170.209,178.284,137.621,191.7l13.415-32.588Z" transform="translate(-112.792 -47.455)"/><path class="b" d="M228.315,90.78l-33.436,33.44a6.829,6.829,0,1,0,9.659,9.658l33.434-33.434Z" transform="translate(-115.176 -44.507)"/><path class="a" d="M241.839,116.891l-.262-.234A45.574,45.574,0,1,1,209,83.977l9.749-9.743a58.024,58.024,0,1,0,32.717,33.032Z" transform="translate(-112.869 -43.618)"/><path class="b" d="M248.26,80.163l-1.169-23.389L219.132,84.742l1.162,23.386,23.386,1.165,27.968-27.965Z" transform="translate(-116.309 -43.039)"/><path class="c" d="M196.208,211.5a84.536,84.536,0,1,1,59.779-24.757A83.988,83.988,0,0,1,196.208,211.5Z" transform="translate(-111.672 -42.42)"/></g></svg>